HIERARCHY
ROOT Hips
{
 OFFSET 0.000000 0.000000 0.000000
 CHANNELS 6 Xposition Yposition Zposition Yrotation Xrotation Zrotation
 JOINT Chest
 {
  OFFSET 0.000000 9.585900 0.002600
  CHANNELS 3 Yrotation Xrotation Zrotation
  JOINT Chest2
  {
   OFFSET 0.000000 9.601200 -0.005300
   CHANNELS 3 Yrotation Xrotation Zrotation
   JOINT Chest3
   {
    OFFSET 0.000000 9.561800 0.000000
    CHANNELS 3 Yrotation Xrotation Zrotation
    JOINT Chest4
    {
     OFFSET 0.000000 9.552100 0.000000
     CHANNELS 3 Yrotation Xrotation Zrotation
     JOINT Neck
     {
      OFFSET 0.000000 14.453000 0.000000
      CHANNELS 3 Yrotation Xrotation Zrotation
      JOINT Head
      {
       OFFSET 0.000000 8.936500 -0.011300
       CHANNELS 3 Yrotation Xrotation Zrotation
       End Site
       {
        OFFSET 0.000000 17.073600 -0.006000
       }
      }
     }
     JOINT RightCollar
     {
      OFFSET -2.921100 9.558500 0.000000
      CHANNELS 3 Yrotation Xrotation Zrotation
      JOINT RightShoulder
      {
       OFFSET -13.519700 0.000000 0.000000
       CHANNELS 3 Yrotation Xrotation Zrotation
       JOINT RightElbow
       {
        OFFSET 0.000000 -29.696600 0.000000
        CHANNELS 3 Yrotation Xrotation Zrotation
        JOINT RightWrist
        {
         OFFSET 0.000000 -24.004700 0.000000
         CHANNELS 3 Yrotation Xrotation Zrotation
         End Site
         {
          OFFSET 0.000000 -17.728500 0.000000
         }
        }
       }
      }
     }
     JOINT LeftCollar
     {
      OFFSET 2.921100 9.558500 0.000000
      CHANNELS 3 Yrotation Xrotation Zrotation
      JOINT LeftShoulder
      {
       OFFSET 13.519700 0.000000 0.000000
       CHANNELS 3 Yrotation Xrotation Zrotation
       JOINT LeftElbow
       {
        OFFSET 0.000000 -29.696600 0.000000
        CHANNELS 3 Yrotation Xrotation Zrotation
        JOINT LeftWrist
        {
         OFFSET 0.000000 -24.004700 0.000000
         CHANNELS 3 Yrotation Xrotation Zrotation
         End Site
         {
          OFFSET 0.000000 -17.728500 0.000000
         }
        }
       }
      }
     }
    }
   }
  }
 }
 JOINT RightHip
 {
  OFFSET -7.771700 -0.012900 -0.001300
  CHANNELS 3 Yrotation Xrotation Zrotation
  JOINT RightKnee
  {
   OFFSET 0.000000 -40.869800 0.001200
   CHANNELS 3 Yrotation Xrotation Zrotation
   JOINT RightAnkle
   {
    OFFSET 0.000000 -39.717900 0.002100
    CHANNELS 3 Yrotation Xrotation Zrotation
    JOINT RightToe
    {
     OFFSET 0.000000 -4.965400 11.033500
     CHANNELS 3 Yrotation Xrotation Zrotation
     End Site
     {
      OFFSET 0.000000 -1.423100 5.872300
     }
    }
   }
  }
 }
 JOINT LeftHip
 {
  OFFSET 7.771700 -0.012900 -0.001300
  CHANNELS 3 Yrotation Xrotation Zrotation
  JOINT LeftKnee
  {
   OFFSET 0.000000 -40.869800 0.001200
   CHANNELS 3 Yrotation Xrotation Zrotation
   JOINT LeftAnkle
   {
    OFFSET 0.000000 -39.717900 0.002100
    CHANNELS 3 Yrotation Xrotation Zrotation
    JOINT LeftToe
    {
     OFFSET 0.000000 -4.965400 11.033500
     CHANNELS 3 Yrotation Xrotation Zrotation
     End Site
     {
      OFFSET 0.000000 -1.423100 5.872300
     }
    }
   }
  }
 }
}
MOTION
Frames: 5
Frame Time: 0.008333
-45.099522 50.921718 44.105283 -178.998844 -35.438743 -9.707016 -0.109561 14.427316 3.908895 -0.108668 8.181197 2.144945 -0.133095 10.341448 2.752229 -0.137054 8.256486 2.191291 6.485588 21.267970 -2.311190 7.616995 -2.732773 -4.019638 0.917522 5.027487 -1.312697 -19.197302 -5.123129 5.074580 14.580484 -76.525124 1.317877 11.378539 -6.581073 -17.631297 -9.211262 3.850185 -3.747847 4.481011 -2.718984 1.537011 -85.122195 -72.391611 84.667798 9.688100 -18.645649 5.776941 -13.840563 -30.532077 1.490422 18.064245 83.016464 13.582808 -0.932805 -14.447116 4.331544 -0.033270 0.219867 -0.005790 -12.218877 -44.713921 12.078151 170.384845 77.681428 165.551044 -2.051292 -18.590683 2.077095 -0.000543 -0.134993 0.043241
-45.094026 51.012159 44.106669 -178.994719 -35.360229 -9.745712 -0.137564 14.406321 3.967041 -0.114113 8.184648 2.153213 -0.133745 10.370097 2.771213 -0.134050 8.246703 2.185364 6.513748 21.301827 -2.303375 7.647345 -2.691141 -4.018106 0.941240 5.031422 -1.302051 -19.190202 -5.187109 5.062598 14.477355 -76.434682 1.386442 11.369924 -6.567939 -17.681204 -9.253704 3.829128 -3.741037 4.451131 -2.826054 1.557998 -85.088816 -72.341735 84.666506 9.749051 -18.857436 5.906384 -14.046168 -30.711785 1.493514 19.362816 83.195347 14.874745 -0.881257 -14.603419 4.207577 -0.032556 0.232104 0.005948 -12.282129 -44.717303 12.235595 170.656153 77.772601 165.738935 -2.074263 -18.480335 2.150293 -0.010822 -0.221502 0.039669
-45.082573 51.143018 44.120208 -178.990163 -35.218405 -9.781431 -0.170455 14.325041 4.026292 -0.123297 8.189871 2.155898 -0.128435 10.378201 2.781068 -0.136031 8.252573 2.191326 6.545425 21.347901 -2.290387 7.680677 -2.635008 -4.011778 0.954347 5.011225 -1.315699 -19.150006 -5.202383 5.087685 14.355840 -76.360977 1.450496 11.349685 -6.559897 -17.720193 -9.288684 3.792957 -3.742579 4.457141 -2.893049 1.550866 -85.199384 -72.259723 84.769917 9.819055 -19.109294 6.068738 -14.265077 -31.012475 1.545617 20.660901 83.436383 16.151084 -0.839736 -14.754798 4.117650 -0.029103 0.246791 0.004620 -12.351365 -44.769865 12.370118 170.666348 77.889168 165.692831 -2.067504 -18.306036 2.203467 -0.055424 -0.352013 0.020449
-45.051958 51.326569 44.131336 -178.943424 -35.124025 -9.915386 -0.202488 14.268072 4.150479 -0.139107 8.269640 2.203527 -0.125531 10.338707 2.758737 -0.138553 8.258250 2.196177 6.577904 21.402353 -2.273472 7.714081 -2.569186 -4.001358 0.958487 4.969677 -1.346787 -19.128838 -5.216253 5.097243 14.039958 -76.276097 1.744376 11.326100 -6.557040 -17.751423 -9.325512 3.757553 -3.740057 4.463642 -2.958565 1.541953 -85.332809 -72.191296 84.896605 9.896849 -19.381410 6.268074 -14.527210 -31.249808 1.716767 21.801350 83.690059 17.254308 -0.821216 -14.893466 4.057587 -0.025887 0.271604 0.001341 -12.469289 -44.721461 12.581868 170.789536 78.050175 165.803534 -2.064949 -18.104482 2.222755 -0.065218 -0.509840 0.017176
-45.011128 51.548902 44.145188 -178.868703 -35.033362 -10.082195 -0.253018 14.219443 4.291805 -0.145795 8.315352 2.235106 -0.126649 10.331287 2.753786 -0.138548 8.228093 2.175472 6.615390 21.489050 -2.224567 7.744665 -2.505059 -3.989223 0.960054 4.944182 -1.365701 -19.111683 -5.204447 5.111800 13.700498 -76.205723 2.068985 11.305190 -6.560258 -17.774195 -9.363675 3.763467 -3.716873 4.379945 -3.060200 1.625116 -85.270100 -72.216496 84.907295 9.970569 -19.652359 6.499635 -14.796837 -31.468366 1.936746 22.805793 83.934934 18.222311 -0.833046 -15.022399 4.018128 -0.020648 0.298191 -0.003992 -12.593805 -44.648758 12.805704 170.699588 78.233686 165.703175 -2.044061 -17.811925 2.268154 -0.147790 -0.746717 -0.006220
